<?xml version="1.0" encoding="UTF-8"?> <svg xmlns="http://www.w3.org/2000/svg" id="final" width="43.625" height="54.906" viewBox="0 0 43.625 54.906"><defs><style> .cls-1 { fill: #fa0; } .cls-1, .cls-2 { fill-rule: evenodd; } .cls-2 { fill: #fff; } </style></defs><path class="cls-1" d="M33.864,55.03a19.842,19.842,0,0,0,8.284-8.519,16.721,16.721,0,0,0,1.864-7.428,15.662,15.662,0,0,0-.47-3.826A15.857,15.857,0,0,0,38.948,27.5,15.811,15.811,0,0,0,28.179.095H0.6V21.051L4.7,17.23l2.16,1.08v-5.4L17.605,4.738,21.984,8.59V21.55l3.4-2.55,8.479,5.79V55.03Z" transform="translate(-0.375 -0.094)"></path><path id="Shape_3_copy" data-name="Shape 3 copy" class="cls-2" d="M9.024,55.03c-0.033-7.575.243-11.876,0.21-19.451l1.338-1.437V28.087L13.3,25.363c-0.032,10.981.079,18.688,0.047,29.668h8.64c-0.053-6.661-.509-10.046-0.562-16.706l1.014-.775V32.088L25.8,29.533c0.1,9.591.409,15.907,0.507,25.5h3.24c0-.752-0.229-2.114-0.229-2.867,0-9.7.057-15.414,0.159-25.11l-3.461-2.176-4.2,2.564v3.491l-3.1,1.773,0.22,19.871H17.46V11.589l-7.015,5.854-0.085,10L7.107,29.96V52.575h-1.1V23.444L0.6,27.787v7.088C0.611,42.685.373,47.221,0.383,55.03h8.64Z" transform="translate(-0.375 -0.094)"></path></svg> 