<?xml version="1.0" encoding="UTF-8"?> <svg xmlns="http://www.w3.org/2000/svg" width="207" height="61" viewBox="0 0 207 61"><defs><style> .cls-1 { fill: #ffb200; } .cls-2 { fill: #0c2d62; } </style></defs><path class="cls-1" d="M387.052,200.05a22.256,22.256,0,0,0,9.379-9.475,18.334,18.334,0,0,0,2.111-8.261,17.162,17.162,0,0,0-.532-4.256,17.578,17.578,0,0,0-5.2-8.622,17.43,17.43,0,0,0,5.734-12.882C398.542,146.873,389.86,139,380,139H349v23l5.041-3.991,2.445,1.2V153.2l12.16-9.089L373.6,148.4v14.414l3.85-2.837,9.6,6.44V200.05Z" transform="translate(-349 -139)"></path><path id="Shape_3_copy" data-name="Shape 3 copy" class="cls-2" d="M423.893,157.647h6.787v16.166a8.638,8.638,0,0,1-5.151,8.226,14.567,14.567,0,0,1-11.3,0,8.82,8.82,0,0,1-3.777-3.242,9.007,9.007,0,0,1-1.348-4.984V157.647h6.785v15.576a4.228,4.228,0,0,0,.513,2.09,3.694,3.694,0,0,0,1.423,1.434,4.411,4.411,0,0,0,4.144,0,3.707,3.707,0,0,0,1.415-1.434,4.227,4.227,0,0,0,.512-2.09V157.647Zm16.8,0v25.237H433.9V157.647h6.786Zm3.222,25.237V157.647H450.7v19.716H460.8v5.521H443.91ZM484.072,163.5a10.49,10.49,0,0,0-4.345-4.338,13.935,13.935,0,0,0-6.671-1.51h-9.52v25.237h9.617a13.683,13.683,0,0,0,6.6-1.511,10.449,10.449,0,0,0,4.32-4.338A15.757,15.757,0,0,0,484.072,163.5Zm-5.993,10.886a4.088,4.088,0,0,1-2,2.084,7.556,7.556,0,0,1-3.166.6h-2.589v-13.6h2.393a8.04,8.04,0,0,1,3.3.6,4.1,4.1,0,0,1,2.05,2.081,9.817,9.817,0,0,1,.7,4.118A9.96,9.96,0,0,1,478.079,174.381Zm8.792-11.214v-5.52H508.6v5.52h-7.519v19.717H494.39V163.167h-7.519Zm38.716,19.717h7.324l-8.251-25.237h-9.277l-8.25,25.237h7.323l1.445-4.832h8.241Zm-8.153-9.957,2.491-8.331h0.194l2.491,8.331h-5.176Zm37.641-.3a5.718,5.718,0,0,0-2.1-2.082,6.248,6.248,0,0,0-2.928-.819v-0.248a6.58,6.58,0,0,0,2.538-1.065,5.431,5.431,0,0,0,1.691-1.917,5.362,5.362,0,0,0,.6-2.539,5.665,5.665,0,0,0-1-3.338,6.329,6.329,0,0,0-2.941-2.194,13.031,13.031,0,0,0-4.8-.776H535.3v25.237h11.765a10.931,10.931,0,0,0,4.687-.924,7.191,7.191,0,0,0,3.033-2.538,6.526,6.526,0,0,0,1.069-3.686A6.019,6.019,0,0,0,555.075,172.625Zm-12.987-9.6h2.881a3.4,3.4,0,0,1,2.1.621,2.106,2.106,0,0,1,.831,1.793,2.2,2.2,0,0,1-.384,1.313,2.435,2.435,0,0,1-1.069.819,4.083,4.083,0,0,1-1.575.282h-2.783v-4.828Zm5.737,13.743a4.211,4.211,0,0,1-2.563.65h-3.174v-5.326h3.271a4.425,4.425,0,0,1,1.777.322,2.523,2.523,0,0,1,1.141.938,2.681,2.681,0,0,1,.4,1.5A2.247,2.247,0,0,1,547.825,176.764ZM349,200h10c0-3.6.022-7.17,0.05-10.766,0.029-3.613.068-7.205,0.12-10.818l1.514-1.6v-6.734L364,167v33h9l-0.033-18.531,1.148-.862v-6.074l3.805-2.841q0.041,14.154.08,28.308h4V169l-3.836-2.486-4.752,2.85v3.883l-3.508,1.972L370,197l-1.518.319V151.735l-7.942,6.51-0.1,11.119-3.683,2.8v25.152h-1.244v-32.4c-2.122,1.744-4.395,3.337-6.517,5.081v30Z" transform="translate(-349 -139)"></path></svg> 