<svg xmlns="http://www.w3.org/2000/svg" width="175" height="42" viewBox="0 0 175 42">
  <g id="Group_20" data-name="Group 20" transform="translate(-378 -624)">
    <g id="Group_19" data-name="Group 19">
      <rect id="Rectangle_19" data-name="Rectangle 19" width="175" height="42" transform="translate(378 624)" fill="none"/>
      <g id="Group_18" data-name="Group 18" transform="translate(2 0.255)">
        <g id="Group_17" data-name="Group 17" transform="translate(0.263)">
          <g id="Group_15" data-name="Group 15" transform="translate(-170 95.887)">
            <path id="Path_2" data-name="Path 2" d="M13.31-99.174c-1.545,0-2.285-.418-2.285-1.513s.74-1.48,2.285-1.48H28.242l4.28-5.6h-18.7c-6.533,0-9.236,2.639-9.236,6.694,0,3.7,2.542,6.179,8.078,6.179H24.38c1.577,0,2.285.451,2.285,1.545,0,1.126-.708,1.577-2.285,1.577H8.1l-4.28,5.535H23.865c6.565,0,9.236-2.639,9.236-7.048,0-3.926-2.832-5.889-8.078-5.889Z" transform="translate(548.288 639.901)" fill="#0c2d62"/>
            <line id="Line_1" data-name="Line 1" x2="15.763" transform="translate(547.737 532.313)" fill="none" stroke="#0c2d62" stroke-width="0.5"/>
            <path id="Path_6" data-name="Path 6" d="M0,0H15.763" transform="translate(547.737 553.413)" fill="none" stroke="#0c2d62" stroke-width="0.5"/>
            <line id="Line_3" data-name="Line 3" y2="29.955" transform="translate(551.433 527.858)" fill="none" stroke="#0c2d62" stroke-width="0.5"/>
            <path id="Path_10" data-name="Path 10" d="M241.264,432.328h7.053L244.6,437.78h-7.468Z" transform="translate(315.033 115.786)" fill="#ffb200"/>
          </g>
          <path id="Path_16" data-name="Path 16" d="M130.887-108.12h0a3.819,3.819,0,0,1,3.765,2.961l5.567,18.923h-6.533l-2.027-7.5c-.644-2.414-1.126-4.216-1.448-5.921-.135.288.067.029,0,0Z" transform="translate(405.288 735.901)" fill="#0c2d62"/>
          <path id="Path_17" data-name="Path 17" d="M62.193-107.766H55.564v13.227H42.756v-13.227H36.062v21.529h6.694v-8.3H55.564v8.3h6.629ZM92.862-90.42a27.455,27.455,0,0,0-3.025-2.832,6.741,6.741,0,0,0,5.632-6.822c0-6.147-6.179-7.691-11.07-7.691H70.561l-4.344,5.6h18.73c2.285,0,3.669.837,3.669,2.51,0,1.48-1.609,2.414-3.669,2.414H66.216v11.006h6.662v-5.7H83.111l4.8,5.7h8.914Zm20.628-17.7c-10.491,0-15.737,3.411-15.737,11.1S103-85.883,113.491-85.883c10.459,0,15.737-3.443,15.737-11.135S123.95-108.12,113.491-108.12Zm0,16.638c-6.694,0-9.107-.9-9.107-5.535s2.414-5.5,9.107-5.5,9.107.869,9.107,5.5S120.184-91.482,113.491-91.482Zm25.971-16.638h0a3.819,3.819,0,0,0-3.765,2.961l-5.567,18.923h6.533l2.027-7.5c.644-2.414,1.126-4.216,1.448-5.921.135.288-.067.029,0,0Z" transform="translate(378.288 735.901)" fill="#0c2d62"/>
          <g id="Group_14" data-name="Group 14" transform="translate(421.903 637.431)">
            <g id="Group_1" data-name="Group 1" transform="translate(10.372 0) rotate(90)">
              <path id="Path_12" data-name="Path 12" d="M3.261,0" transform="translate(0 -1)" fill="none" stroke="#0c2d62" stroke-width="1"/>
              <line id="Line_6" data-name="Line 6" x2="1.779" transform="translate(0 -0.285)" fill="none" stroke="#0c2d62" stroke-width="1"/>
            </g>
            <g id="Group_1-2" data-name="Group 1" transform="translate(7.153 0) rotate(90)">
              <line id="Line_5" data-name="Line 5" x2="3.261" transform="translate(0 -1)" fill="none" stroke="#0c2d62" stroke-width="1"/>
              <line id="Line_6-2" data-name="Line 6" x2="1.779" transform="translate(0 1.715)" fill="none" stroke="#0c2d62" stroke-width="1"/>
            </g>
            <g id="Group_1-3" data-name="Group 1" transform="translate(0.715 0) rotate(90)">
              <line id="Line_5-2" data-name="Line 5" x2="3.261" transform="translate(0 -2)" fill="none" stroke="#0c2d62" stroke-width="1"/>
              <line id="Line_6-3" data-name="Line 6" x2="1.779" transform="translate(0 0.715)" fill="none" stroke="#0c2d62" stroke-width="1"/>
            </g>
          </g>
          <g id="Group_16" data-name="Group 16" transform="translate(545.356 576.081)">
            <path id="Path_4" data-name="Path 4" d="M829.186,185.242l-8.795-13.856,8.795,9.725,8.661-9.589Z" transform="translate(-847.392 -119.386)" fill="#0c2d62"/>
            <path id="Path_5" data-name="Path 5" d="M818.287,178.9s3.37-4.089,8.182-2.8A10.51,10.51,0,0,1,831,178.9" transform="translate(-842.57 -115.927)" fill="none" stroke="#ffb200" stroke-linecap="round" stroke-width="1" opacity="0"/>
            <g id="Ellipse_2" data-name="Ellipse 2" transform="translate(-21.915 60.875)" fill="none" stroke="#ffb200" stroke-width="2">
              <ellipse cx="3.989" cy="3.989" rx="3.989" ry="3.989" stroke="none"/>
              <ellipse cx="3.989" cy="3.989" rx="2.989" ry="2.989" fill="none"/>
            </g>
            <path id="Path_7" data-name="Path 7" d="M.75,0c.414,0,.75.25.75.559V5.213c0,.309-.336.559-.75.559S0,5.522,0,5.213V.559C0,.25.336,0,.75,0Z" transform="translate(-18.676 65.856)" fill="#ffb200"/>
          </g>
          <line id="Line_12" data-name="Line 12" x1="13" transform="translate(536.5 628)" fill="none" stroke="#0c2d62" stroke-width="0.5"/>
          <path id="Path_18" data-name="Path 18" d="M12.922,0H2.855" transform="translate(536.578 649.4)" fill="none" stroke="#0c2d62" stroke-width="0.5"/>
          <line id="Line_13" data-name="Line 13" y2="29.955" transform="translate(545.805 623.745)" fill="none" stroke="#0c2d62" stroke-width="0.5"/>
          <path id="Path_19" data-name="Path 19" d="M338.763-89.025a27.454,27.454,0,0,0-3.025-2.832,6.741,6.741,0,0,0,5.632-6.822c0-6.147-6.179-7.691-11.07-7.691H316.461l-4.345,5.6h18.73c2.285,0,3.669.837,3.669,2.51,0,1.48-1.609,2.414-3.669,2.414h-18.73v11.006h6.662v-5.7h10.234l4.8,5.7h8.914Zm-.613-7.658v0Z" transform="translate(132.4 734.371)" fill="#ffb200" stroke="#ffb200" stroke-width="0.5"/>
        </g>
      </g>
    </g>
    <text id="engineering_solutions" data-name="engineering  solutions" transform="translate(381 663)" fill="#0c2d62" font-size="7" font-family="EthnocentricRg-Regular, Ethnocentric" letter-spacing="0.317em"><tspan x="0" y="0" xml:space="preserve">engineering  solutions</tspan></text>
  </g>
</svg>
