<svg xmlns="http://www.w3.org/2000/svg" width="175" height="42" viewBox="0 0 175 42">
  <g id="Group_20" data-name="Group 20" transform="translate(-378 -624)">
    <g id="Group_19" data-name="Group 19">
      <rect id="Rectangle_19" data-name="Rectangle 19" width="175" height="42" transform="translate(378 624)" fill="none"/>
      <g id="Group_18" data-name="Group 18" transform="translate(2 0.255)">
        <g id="Group_17" data-name="Group 17" transform="translate(0.263)">
          <g id="Group_15" data-name="Group 15" transform="translate(-170 95.887)">
            <path id="Path_2" data-name="Path 2" d="M13.31-99.174c-1.545,0-2.285-.418-2.285-1.513s.74-1.48,2.285-1.48H28.242l4.28-5.6h-18.7c-6.533,0-9.236,2.639-9.236,6.694,0,3.7,2.542,6.179,8.078,6.179H24.38c1.577,0,2.285.451,2.285,1.545,0,1.126-.708,1.577-2.285,1.577H8.1l-4.28,5.535H23.865c6.565,0,9.236-2.639,9.236-7.048,0-3.926-2.832-5.889-8.078-5.889Z" transform="translate(548.288 639.901)" fill="#0c2d62"/>
            <line id="Line_1" data-name="Line 1" x2="15.763" transform="translate(547.737 532.313)" fill="none" stroke="#0c2d62" stroke-width="0.5"/>
            <path id="Path_6" data-name="Path 6" d="M0,0H15.763" transform="translate(547.737 553.413)" fill="none" stroke="#0c2d62" stroke-width="0.5"/>
            <line id="Line_3" data-name="Line 3" y2="29.955" transform="translate(551.433 527.858)" fill="none" stroke="#0c2d62" stroke-width="0.5"/>
            <path id="Path_10" data-name="Path 10" d="M241.264,432.328h7.053L244.6,437.78h-7.468Z" transform="translate(315.033 115.786)" fill="#ffb200"/>
          </g>
          <path id="Path_16" data-name="Path 16" d="M130.887-108.12h0a3.819,3.819,0,0,1,3.765,2.961l5.567,18.923h-6.533l-2.027-7.5c-.644-2.414-1.126-4.216-1.448-5.921-.135.288.067.029,0,0Z" transform="translate(405.288 735.901)" fill="#0c2d62"/>
          <path id="Path_17" data-name="Path 17" d="M62.193-107.766H55.564v13.227H42.756v-13.227H36.062v21.529h6.694v-8.3H55.564v8.3h6.629ZM92.862-90.42a27.455,27.455,0,0,0-3.025-2.832,6.741,6.741,0,0,0,5.632-6.822c0-6.147-6.179-7.691-11.07-7.691H70.561l-4.344,5.6h18.73c2.285,0,3.669.837,3.669,2.51,0,1.48-1.609,2.414-3.669,2.414H66.216v11.006h6.662v-5.7H83.111l4.8,5.7h8.914Zm20.628-17.7c-10.491,0-15.737,3.411-15.737,11.1S103-85.883,113.491-85.883c10.459,0,15.737-3.443,15.737-11.135S123.95-108.12,113.491-108.12Zm0,16.638c-6.694,0-9.107-.9-9.107-5.535s2.414-5.5,9.107-5.5,9.107.869,9.107,5.5S120.184-91.482,113.491-91.482Zm25.971-16.638h0a3.819,3.819,0,0,0-3.765,2.961l-5.567,18.923h6.533l2.027-7.5c.644-2.414,1.126-4.216,1.448-5.921.135.288-.067.029,0,0Z" transform="translate(378.288 735.901)" fill="#0c2d62"/>
          <g id="Group_14" data-name="Group 14" transform="translate(421.903 637.431)">
            <g id="Group_1" data-name="Group 1" transform="translate(10.372 0) rotate(90)">
              <path id="Path_12" data-name="Path 12" d="M3.261,0" transform="translate(0 -1)" fill="none" stroke="#0c2d62" stroke-width="1"/>
              <line id="Line_6" data-name="Line 6" x2="1.779" transform="translate(0 -0.285)" fill="none" stroke="#0c2d62" stroke-width="1"/>
            </g>
            <g id="Group_1-2" data-name="Group 1" transform="translate(7.153 0) rotate(90)">
              <line id="Line_5" data-name="Line 5" x2="3.261" transform="translate(0 -1)" fill="none" stroke="#0c2d62" stroke-width="1"/>
              <line id="Line_6-2" data-name="Line 6" x2="1.779" transform="translate(0 1.715)" fill="none" stroke="#0c2d62" stroke-width="1"/>
            </g>
            <g id="Group_1-3" data-name="Group 1" transform="translate(0.715 0) rotate(90)">
              <line id="Line_5-2" data-name="Line 5" x2="3.261" transform="translate(0 -2)" fill="none" stroke="#0c2d62" stroke-width="1"/>
              <line id="Line_6-3" data-name="Line 6" x2="1.779" transform="translate(0 0.715)" fill="none" stroke="#0c2d62" stroke-width="1"/>
            </g>
          </g>
          <g id="Group_16" data-name="Group 16" transform="translate(545.356 576.081)">
            <path id="Path_4" data-name="Path 4" d="M829.186,185.242l-8.795-13.856,8.795,9.725,8.661-9.589Z" transform="translate(-847.392 -119.386)" fill="#0c2d62"/>
            <path id="Path_5" data-name="Path 5" d="M818.287,178.9s3.37-4.089,8.182-2.8A10.51,10.51,0,0,1,831,178.9" transform="translate(-842.57 -115.927)" fill="none" stroke="#ffb200" stroke-linecap="round" stroke-width="1" opacity="0"/>
            <g id="Ellipse_2" data-name="Ellipse 2" transform="translate(-21.915 60.875)" fill="none" stroke="#ffb200" stroke-width="2">
              <ellipse cx="3.989" cy="3.989" rx="3.989" ry="3.989" stroke="none"/>
              <ellipse cx="3.989" cy="3.989" rx="2.989" ry="2.989" fill="none"/>
            </g>
            <path id="Path_7" data-name="Path 7" d="M.75,0c.414,0,.75.25.75.559V5.213c0,.309-.336.559-.75.559S0,5.522,0,5.213V.559C0,.25.336,0,.75,0Z" transform="translate(-18.676 65.856)" fill="#ffb200"/>
          </g>
          <line id="Line_12" data-name="Line 12" x1="13" transform="translate(536.5 628)" fill="none" stroke="#0c2d62" stroke-width="0.5"/>
          <path id="Path_18" data-name="Path 18" d="M12.922,0H2.855" transform="translate(536.578 649.4)" fill="none" stroke="#0c2d62" stroke-width="0.5"/>
          <line id="Line_13" data-name="Line 13" y2="29.955" transform="translate(545.805 623.745)" fill="none" stroke="#0c2d62" stroke-width="0.5"/>
          <path id="Path_19" data-name="Path 19" d="M338.763-89.025a27.454,27.454,0,0,0-3.025-2.832,6.741,6.741,0,0,0,5.632-6.822c0-6.147-6.179-7.691-11.07-7.691H316.461l-4.345,5.6h18.73c2.285,0,3.669.837,3.669,2.51,0,1.48-1.609,2.414-3.669,2.414h-18.73v11.006h6.662v-5.7h10.234l4.8,5.7h8.914Zm-.613-7.658v0Z" transform="translate(132.4 734.371)" fill="#ffb200" stroke="#ffb200" stroke-width="0.5"/>
        </g>
      </g>
    </g>
    <path id="Path_22" data-name="Path 22" d="M1.9-1.2v-.637H4.774l.833-1.064H1.9v-.56H4.928l.938-1.218H.441V0H4.949L5.88-1.2ZM13.342.077a.778.778,0,0,0,.8-.882V-4.683H12.817v2.751L9.947-4.508a.8.8,0,0,0-.581-.252.77.77,0,0,0-.791.875V0H9.891V-2.751l2.87,2.576A.778.778,0,0,0,13.342.077Zm5.894-1.96h2.422V-1.2H19.887c-.805,0-1.379-.441-1.379-1.12a1.241,1.241,0,0,1,1.379-1.141H22.3l.938-1.218H19.887c-1.624,0-2.821.924-2.821,2.3A2.565,2.565,0,0,0,19.887,0H23.1V-2.926h-3Zm8.386-2.8H26.173V0h1.449ZM35.49.077a.778.778,0,0,0,.8-.882V-4.683H34.965v2.751L32.1-4.508a.8.8,0,0,0-.581-.252.77.77,0,0,0-.791.875V0h1.316V-2.751l2.87,2.576A.778.778,0,0,0,35.49.077ZM40.817-1.2v-.637h2.877l.833-1.064h-3.71v-.56h3.031l.938-1.218H39.361V0h4.508L44.8-1.2Zm8.155,0v-.637h2.877l.833-1.064h-3.71v-.56H52l.938-1.218H47.516V0h4.508l.931-1.2ZM61.453-.91a5.971,5.971,0,0,0-.658-.616A1.466,1.466,0,0,0,62.02-3.01c0-1.337-1.344-1.673-2.408-1.673H56.6l-.945,1.218h4.074c.5,0,.8.182.8.546,0,.322-.35.525-.8.525H55.657V0h1.449V-1.239h2.226L60.375,0h1.939Zm5.068-3.773H65.072V0h1.449ZM74.389.077a.778.778,0,0,0,.8-.882V-4.683H73.864v2.751l-2.87-2.576a.8.8,0,0,0-.581-.252.77.77,0,0,0-.791.875V0h1.316V-2.751l2.87,2.576A.778.778,0,0,0,74.389.077Zm5.894-1.96h2.422V-1.2H80.934c-.805,0-1.379-.441-1.379-1.12a1.241,1.241,0,0,1,1.379-1.141h2.415l.938-1.218H80.934c-1.624,0-2.821.924-2.821,2.3A2.565,2.565,0,0,0,80.934,0h3.213V-2.926h-3Zm28.308-.931c-.336,0-.5-.091-.5-.329s.161-.322.5-.322h3.248l.931-1.218H108.7c-1.421,0-2.009.574-2.009,1.456,0,.805.553,1.344,1.757,1.344H111c.343,0,.5.1.5.336s-.154.343-.5.343h-3.542L106.526,0h4.361c1.428,0,2.009-.574,2.009-1.533,0-.854-.616-1.281-1.757-1.281Zm8.624,1.61v-.637h2.877l.833-1.064h-3.71v-.56h3.031l.938-1.218h-5.425V0h4.508l.931-1.2ZM129.7-.91a5.973,5.973,0,0,0-.658-.616,1.466,1.466,0,0,0,1.225-1.484c0-1.337-1.344-1.673-2.408-1.673h-3.01L123.9-3.465h4.074c.5,0,.8.182.8.546,0,.322-.35.525-.8.525H123.9V0h1.449V-1.239h2.226L128.618,0h1.939Zm2.716-3.773,2.933,4.235a1.086,1.086,0,0,0,.924.525,1.14,1.14,0,0,0,.938-.525l3-4.235H138.5l-2.2,3.108L134.19-4.683Zm12,0h-1.449V0h1.449Zm5.8,3.479c-.791,0-1.372-.455-1.372-1.12a1.23,1.23,0,0,1,1.372-1.141h2.352l.931-1.218h-3.283c-1.624,0-2.821.924-2.821,2.3A2.565,2.565,0,0,0,150.206,0h2.352l.931-1.2Zm7.462,0v-.637h2.877l.833-1.064h-3.71v-.56H160.7l.938-1.218h-5.425V0h4.508l.931-1.2Zm8.491-1.61c-.336,0-.5-.091-.5-.329s.161-.322.5-.322h3.248l.931-1.218h-4.067c-1.421,0-2.009.574-2.009,1.456,0,.805.553,1.344,1.757,1.344h2.548c.343,0,.5.1.5.336s-.154.343-.5.343h-3.542L164.094,0h4.361c1.428,0,2.009-.574,2.009-1.533,0-.854-.616-1.281-1.757-1.281Z" transform="translate(380 663)" fill="#0c2d62"/>
  </g>
</svg>
