<svg xmlns="http://www.w3.org/2000/svg" width="175.201" height="42.674" viewBox="0 0 175.201 42.674">
  <g id="Group_7" data-name="Group 7" transform="translate(-8.799 -7.947)">
    <rect id="Rectangle_17" data-name="Rectangle 17" width="174.873" height="38.941" transform="translate(9.102 8.128)" fill="#f1f4f9"/>
    <path id="Path_2" data-name="Path 2" d="M13.31-99.174c-1.545,0-2.285-.418-2.285-1.513s.74-1.48,2.285-1.48H28.242l4.28-5.6h-18.7c-6.533,0-9.236,2.639-9.236,6.694,0,3.7,2.542,6.179,8.078,6.179H24.38c1.577,0,2.285.451,2.285,1.545,0,1.126-.708,1.577-2.285,1.577H8.1l-4.28,5.535H23.865c6.565,0,9.236-2.639,9.236-7.048,0-3.926-2.832-5.889-8.078-5.889Zm48.884-8.592H55.564v7.627H42.756v-7.627H36.062v21.529h6.694v-8.3H55.564v8.3h6.629ZM92.862-90.42a27.455,27.455,0,0,0-3.025-2.832,6.741,6.741,0,0,0,5.632-6.822c0-6.147-6.179-7.691-11.07-7.691H70.561l-4.344,5.6h18.73c2.285,0,3.669.837,3.669,2.51,0,1.48-1.609,2.414-3.669,2.414H66.216v11.006h6.662v-5.7H83.111l4.8,5.7h8.914Zm20.628-17.7c-10.491,0-15.737,3.411-15.737,11.1S103-85.883,113.491-85.883c10.459,0,15.737-3.443,15.737-11.135S123.95-108.12,113.491-108.12Zm0,16.638c-6.694,0-9.107-.9-9.107-5.535s2.414-5.5,9.107-5.5,9.107.869,9.107,5.5S120.184-91.482,113.491-91.482ZM143.1-105.835a3.944,3.944,0,0,0-3.637-2.285,3.819,3.819,0,0,0-3.765,2.961l-5.567,18.923h6.533l2.027-7.5c.644-2.414,1.126-4.216,1.448-5.921.676,1.448,1.448,2.961,3.025,5.921l2.9,5.439c1.126,2.124,2.221,2.414,3.83,2.414s2.7-.29,3.83-2.414l2.9-5.407c1.48-2.8,2.285-4.441,2.993-5.954.354,1.738.8,3.476,1.48,5.921l2.027,7.5h6.629l-5.439-18.923a3.784,3.784,0,0,0-3.733-2.961,4.011,4.011,0,0,0-3.669,2.285l-3.443,6.114c-1.9,3.315-2.735,4.892-3.443,6.4-.74-1.513-1.577-3.122-3.476-6.436Z" transform="translate(9.551 120.901)" fill="#0c2d62"/>
    <path id="Path_8" data-name="Path 8" d="M13.31-99.174c-1.545,0-2.285-.418-2.285-1.513s.74-1.48,2.285-1.48H28.242l4.28-5.6h-18.7c-6.533,0-9.236,2.639-9.236,6.694,0,3.7,2.542,6.179,8.078,6.179H24.38c1.577,0,2.285.451,2.285,1.545,0,1.126-.708,1.577-2.285,1.577H8.1l-4.28,5.535H23.865c6.565,0,9.236-2.639,9.236-7.048,0-3.926-2.832-5.889-8.078-5.889Zm48.884-8.592H55.564v7.627H42.756v-7.627H36.062v21.529h6.694v-8.3H55.564v8.3h6.629ZM92.862-90.42a27.455,27.455,0,0,0-3.025-2.832,6.741,6.741,0,0,0,5.632-6.822c0-6.147-6.179-7.691-11.07-7.691H70.561l-4.344,5.6h18.73c2.285,0,3.669.837,3.669,2.51,0,1.48-1.609,2.414-3.669,2.414H66.216v11.006h6.662v-5.7H83.111l4.8,5.7h8.914Zm20.628-17.7c-10.491,0-15.737,3.411-15.737,11.1S103-85.883,113.491-85.883c10.459,0,15.737-3.443,15.737-11.135S123.95-108.12,113.491-108.12Zm0,16.638c-6.694,0-9.107-.9-9.107-5.535s2.414-5.5,9.107-5.5,9.107.869,9.107,5.5S120.184-91.482,113.491-91.482ZM143.1-105.835a3.944,3.944,0,0,0-3.637-2.285,3.819,3.819,0,0,0-3.765,2.961l-5.567,18.923h6.533l2.027-7.5c.644-2.414,1.126-4.216,1.448-5.921.676,1.448,1.448,2.961,3.025,5.921l2.9,5.439c1.126,2.124,2.221,2.414,3.83,2.414s2.7-.29,3.83-2.414l2.9-5.407c1.48-2.8,2.285-4.441,2.993-5.954.354,1.738.8,3.476,1.48,5.921l2.027,7.5h6.629l-5.439-18.923a3.784,3.784,0,0,0-3.733-2.961,4.011,4.011,0,0,0-3.669,2.285l-3.443,6.114c-1.9,3.315-2.735,4.892-3.443,6.4-.74-1.513-1.577-3.122-3.476-6.436Z" transform="translate(9.551 120.901)" fill="#0c2d62"/>
    <rect id="Rectangle_10" data-name="Rectangle 10" width="19.633" height="21.859" transform="translate(149.619 13.007)" fill="#f1f4f9"/>
    <line id="Line_1" data-name="Line 1" x2="175" transform="translate(9 12.906)" fill="none" stroke="#0c2d62" stroke-width="0.5"/>
    <path id="Path_6" data-name="Path 6" d="M0,0H175" transform="translate(9 34.765)" fill="none" stroke="#0c2d62" stroke-width="0.5"/>
    <rect id="Rectangle_13" data-name="Rectangle 13" width="32.384" height="28.943" transform="translate(73.921 8.959)" fill="#f1f4f9"/>
    <line id="Line_3" data-name="Line 3" y2="29.955" transform="translate(12.695 8.858)" fill="none" stroke="#0c2d62" stroke-width="0.5"/>
    <line id="Line_4" data-name="Line 4" y2="28.538" transform="translate(180.08 9.668)" fill="none" stroke="#0c2d62" stroke-width="0.5"/>
    <rect id="Rectangle_1" data-name="Rectangle 1" width="12.771" height="6.882" transform="translate(52.325 20.496)" fill="#f1f4f9"/>
    <g id="Group_2" data-name="Group 2" transform="translate(53.525 23.431)">
      <g id="Group_1" data-name="Group 1" transform="translate(10.372 0) rotate(90)">
        <path id="Path_12" data-name="Path 12" d="M3.261,0" transform="translate(0 -1)" fill="none" stroke="#0c2d62" stroke-width="1"/>
        <line id="Line_6" data-name="Line 6" x2="1.779" transform="translate(0 -0.285)" fill="none" stroke="#0c2d62" stroke-width="1"/>
      </g>
      <g id="Group_1-2" data-name="Group 1" transform="translate(7.153 0) rotate(90)">
        <line id="Line_5" data-name="Line 5" x2="3.261" transform="translate(0 -1)" fill="none" stroke="#0c2d62" stroke-width="1"/>
        <line id="Line_6-2" data-name="Line 6" x2="1.779" transform="translate(0 1.715)" fill="none" stroke="#0c2d62" stroke-width="1"/>
      </g>
      <g id="Group_1-3" data-name="Group 1" transform="translate(0.715 0) rotate(90)">
        <line id="Line_5-2" data-name="Line 5" x2="3.261" transform="translate(0 -2)" fill="none" stroke="#0c2d62" stroke-width="1"/>
        <line id="Line_6-3" data-name="Line 6" x2="1.779" transform="translate(0 0.715)" fill="none" stroke="#0c2d62" stroke-width="1"/>
      </g>
    </g>
    <g id="Group_3" data-name="Group 3" transform="translate(118.338 18.866)">
      <g id="Ellipse_1" data-name="Ellipse 1" transform="translate(1.724 2.333)" fill="none" stroke="#0c2d62" stroke-width="0.5">
        <circle cx="2.738" cy="2.738" r="2.738" stroke="none"/>
        <circle cx="2.738" cy="2.738" r="2.488" fill="none"/>
      </g>
      <line id="Line_7" data-name="Line 7" y2="10.142" transform="translate(4.463 0)" fill="none" stroke="#0c2d62" stroke-width="0.5"/>
      <line id="Line_8" data-name="Line 8" x2="8.925" transform="translate(0 5.071)" fill="none" stroke="#0c2d62" stroke-width="0.5"/>
    </g>
    <rect id="Rectangle_3" data-name="Rectangle 3" width="11.334" height="5.566" transform="translate(74.933 28.997)" fill="#f1f4f9"/>
    <line id="Line_10" data-name="Line 10" x2="7.286" transform="translate(80.196 31.729)" fill="none" stroke="#0c2d62" stroke-width="1"/>
    <g id="Path_3" data-name="Path 3" transform="translate(87.482 30.117)" fill="#0c2d62">
      <path d="M 1.197259306907654 2.724795818328857 L 0.4999992847442627 2.724795818328857 L 0.4999992847442627 0.4999957680702209 L 1.197259306907654 0.4999957680702209 L 1.197259306907654 0.9688557386398315 L 1.197259306907654 2.724795818328857 Z" stroke="none"/>
      <path d="M -7.152557373046875e-07 -4.291534423828125e-06 L 1.697259306907654 -4.291534423828125e-06 L 1.697259306907654 3.224795818328857 L -7.152557373046875e-07 3.224795818328857 L -7.152557373046875e-07 -4.291534423828125e-06 Z" stroke="none" fill="#0c2d62"/>
    </g>
    <rect id="Rectangle_5" data-name="Rectangle 5" width="2.429" height="15.99" transform="translate(11.785 15.841)" fill="#f1f4f9"/>
    <rect id="Rectangle_6" data-name="Rectangle 6" width="2.834" height="27.931" transform="translate(42.752 10.983)" fill="#f1f4f9"/>
    <rect id="Rectangle_7" data-name="Rectangle 7" width="3.643" height="27.931" transform="translate(71.695 11.59)" fill="#f1f4f9"/>
    <rect id="Rectangle_8" data-name="Rectangle 8" width="1.822" height="27.931" transform="translate(105.496 7.947)" fill="#f1f4f9"/>
    <rect id="Rectangle_9" data-name="Rectangle 9" width="10.322" height="3.643" transform="translate(134.439 10.781)" fill="#f1f4f9"/>
    <rect id="Rectangle_14" data-name="Rectangle 14" width="5.262" height="1.417" transform="translate(134.439 34.057)" fill="#f1f4f9"/>
    <rect id="Rectangle_12" data-name="Rectangle 12" width="26.312" height="1.822" transform="translate(146.38 34.259)" fill="#f1f4f9"/>
    <g id="Group_4" data-name="Group 4" transform="translate(149.619 13.081)">
      <path id="Path_4" data-name="Path 4" d="M830.263,185.242l-9.872-13.856,9.872,9.725,9.721-9.589Z" transform="translate(-820.392 -171.386)" fill="#0c2d62"/>
      <path id="Path_5" data-name="Path 5" d="M818.287,178.9a10.741,10.741,0,0,1,9.558-2.8,12.8,12.8,0,0,1,5.292,2.8" transform="translate(-815.57 -167.927)" fill="none" stroke="#ffb200" stroke-linecap="round" stroke-width="1" opacity="0"/>
      <g id="Ellipse_2" data-name="Ellipse 2" transform="translate(5.808 9.875)" fill="none" stroke="#ffb200" stroke-width="2">
        <ellipse cx="3.989" cy="3.989" rx="3.989" ry="3.989" stroke="none"/>
        <ellipse cx="3.989" cy="3.989" rx="2.989" ry="2.989" fill="none"/>
      </g>
      <ellipse id="Ellipse_3" data-name="Ellipse 3" cx="1.36" cy="1.36" rx="1.36" ry="1.36" transform="translate(12.083 33.252)" fill="#f1f4f9"/>
      <path id="Path_7" data-name="Path 7" d="M.75,0c.414,0,.75.25.75.559V5.213c0,.309-.336.559-.75.559S0,5.522,0,5.213V.559C0,.25.336,0,.75,0Z" transform="translate(9.047 14.856)" fill="#ffb200"/>
    </g>
    <rect id="Rectangle_11" data-name="Rectangle 11" width="19.633" height="1.012" transform="translate(149.619 12.198)" fill="#f1f4f9"/>
    <path id="Path_9" data-name="Path 9" d="M338.763-89.025a27.454,27.454,0,0,0-3.025-2.832,6.741,6.741,0,0,0,5.632-6.822c0-6.147-6.179-7.691-11.07-7.691H316.461l-4.345,5.6h18.73c2.285,0,3.669.837,3.669,2.51,0,1.48-1.609,2.414-3.669,2.414h-18.73v11.006h6.662v-5.7h10.234l4.8,5.7h8.914Zm4.892-6.6Z" transform="translate(-236.338 119.556)" fill="#ffb200"/>
    <rect id="Rectangle_15" data-name="Rectangle 15" width="8.243" height="2.834" transform="translate(54.585 11.995)" fill="#f1f4f9"/>
    <rect id="Rectangle_16" data-name="Rectangle 16" width="8.243" height="2.834" transform="translate(54.585 34.057)" fill="#f1f4f9"/>
    <path id="Path_10" data-name="Path 10" d="M241.264,432.328h7.053L244.6,437.78h-7.468Z" transform="translate(-223.704 -403.214)" fill="#ffb200"/>
    <path id="Path_11" data-name="Path 11" d="M7.6-18.286a2.585,2.585,0,0,0-2.674-2.7h-2.1l-.876,1.434H4.925a1.3,1.3,0,0,1,1.314,1.343,1.257,1.257,0,0,1-1.314,1.319H3.333v-2.019H1.953v3.436H4.925A2.677,2.677,0,0,0,7.6-18.286Zm3.271-2.7H9.5v5.513h1.373Zm3.954,3.3h2.3v.8H15.44a1.247,1.247,0,0,1-1.307-1.319,1.288,1.288,0,0,1,1.307-1.343h2.289l.889-1.434H15.44a2.578,2.578,0,0,0-2.674,2.7,2.677,2.677,0,0,0,2.674,2.81h3.045v-3.445H15.646Zm7.026-3.3H20.476v5.513h1.373Zm2.508,0-.889,1.434h2.083v4.079h1.373v-4.079H28.51l.889-1.434Zm12.28,5.513-2.773-4.986a1.013,1.013,0,0,0-.876-.618,1.043,1.043,0,0,0-.889.618l-2.846,4.986h1.625l2.083-3.659.8,1.459c.146.264.332.6.451.8-.212-.016-.524-.016-.789-.016H32.3l-.829,1.417Zm3.045-1.417v-4.1H38.308v5.513h3.921l.889-1.417Zm21.886-1.393a2.585,2.585,0,0,0-2.674-2.7H56.8l-.876,1.434h2.972a1.3,1.3,0,0,1,1.314,1.343,1.257,1.257,0,0,1-1.314,1.319H57.3v-2.019h-1.38v3.436h2.972A2.677,2.677,0,0,0,61.568-18.286Zm7.357,1.739a6.372,6.372,0,0,0-.624-.725,1.674,1.674,0,0,0,1.161-1.747c0-1.574-1.274-1.97-2.282-1.97H64.327l-.9,1.434h3.861c.471,0,.756.214.756.643,0,.379-.332.618-.756.618H63.432v2.818h1.373v-1.459h2.11l.988,1.459h1.838Zm9.527,1.071-2.773-4.986a1.013,1.013,0,0,0-.876-.618,1.043,1.043,0,0,0-.889.618l-2.846,4.986h1.625l2.083-3.659.8,1.459c.146.264.332.6.451.8-.212-.016-.524-.016-.789-.016H74.119l-.829,1.417Zm1.672-5.513v5.513H81.5V-17.5h2.508l.836-1.343H81.5v-.717H84.21l.889-1.434Zm7.092,0-.889,1.434h2.083v4.079h1.373v-4.079h1.586l.889-1.434Zm8.034,0H93.876v5.513h1.373Zm6.535,5.6c.4,0,.756-.3.756-1.038v-4.565h-1.254v3.239l-2.72-3.033a.69.69,0,0,0-.551-.3c-.391,0-.75.3-.75,1.03v4.574h1.247v-3.239l2.72,3.033A.674.674,0,0,0,101.784-15.385Zm4.664-2.307h2.3v.8h-1.678a1.247,1.247,0,0,1-1.307-1.319,1.288,1.288,0,0,1,1.307-1.343h2.289l.889-1.434h-3.178a2.578,2.578,0,0,0-2.674,2.7,2.677,2.677,0,0,0,2.674,2.81h3.045v-3.445H107.27Zm18.5-1.1c-.318,0-.471-.107-.471-.387s.153-.379.471-.379h3.078l.882-1.434H125.05c-1.347,0-1.9.676-1.9,1.714a1.468,1.468,0,0,0,1.665,1.582h2.415c.325,0,.471.115.471.4s-.146.4-.471.4h-3.357l-.882,1.417h4.133c1.353,0,1.9-.676,1.9-1.8,0-1.005-.584-1.508-1.665-1.508Zm7.251,1.9v-.75h2.727l.789-1.253h-3.516v-.659h2.873l.889-1.434h-5.141v5.513h4.272l.882-1.417Zm10.907.346a6.374,6.374,0,0,0-.624-.725,1.674,1.674,0,0,0,1.161-1.747c0-1.574-1.274-1.97-2.282-1.97H138.5l-.9,1.434h3.861c.471,0,.756.214.756.643,0,.379-.332.618-.756.618h-3.861v2.818h1.373v-1.459h2.11l.988,1.459h1.838Zm1.652-4.442L147.533-16a1.013,1.013,0,0,0,.876.618A1.06,1.06,0,0,0,149.3-16l2.839-4.986h-1.619l-2.083,3.659-2-3.659Zm10.449,0h-1.373v5.513H155.2Zm4.571,4.1a1.258,1.258,0,0,1-1.3-1.319,1.278,1.278,0,0,1,1.3-1.343H162l.882-1.434h-3.111a2.578,2.578,0,0,0-2.674,2.7,2.677,2.677,0,0,0,2.674,2.81H162l.882-1.417Zm6.15,0v-.75h2.727l.789-1.253h-3.516v-.659H168.8l.889-1.434h-5.141v5.513h4.272l.882-1.417Zm7.125-1.9c-.318,0-.471-.107-.471-.387s.153-.379.471-.379h3.078l.882-1.434h-3.854c-1.347,0-1.9.676-1.9,1.714a1.468,1.468,0,0,0,1.665,1.582h2.415c.325,0,.471.115.471.4s-.146.4-.471.4h-3.357l-.882,1.417h4.133c1.353,0,1.9-.676,1.9-1.8,0-1.005-.584-1.508-1.665-1.508Z" transform="translate(6.846 66.007)" fill="#0c2d62"/>
    <circle id="Ellipse_4" data-name="Ellipse 4" cx="1.97" cy="1.97" r="1.97" transform="translate(154.036 25.628)" fill="#f1f4f9"/>
  </g>
</svg>
