<svg xmlns="http://www.w3.org/2000/svg" width="27.031" height="20.344" viewBox="0 0 27.031 20.344">
  <defs>
    <style>
      .cls-1 {
        fill: #ffa800;
        fill-rule: evenodd;
      }
    </style>
  </defs>
  <path id="_" data-name="“" class="cls-1" d="M9.494,21.3V15.1A17.42,17.42,0,0,1,10.5,9.024,27.417,27.417,0,0,1,13.1,3.8L7.761,0.643A19.9,19.9,0,0,0,4.125,4.677a23.378,23.378,0,0,0-2.7,5.142A15.152,15.152,0,0,0,.4,15.16V21.3H9.494Zm14.347,0V15.1a17.419,17.419,0,0,1,1.008-6.08,27.417,27.417,0,0,1,2.6-5.227L22.108,0.643a19.9,19.9,0,0,0-3.636,4.034,23.378,23.378,0,0,0-2.7,5.142A15.152,15.152,0,0,0,14.75,15.16V21.3h9.091Z" transform="translate(-0.406 -0.656)"/>
</svg>
